<?xml version="1.0" encoding="UTF-8" standalone="no"?>
<svg
   id="Hexagone"
   viewBox="0 0 141.62 163.87"
   version="1.1"
   sodipodi:docname="Garage.svg"
   inkscape:version="1.2.2 (b0a8486541, 2022-12-01)"
   xmlns:inkscape="http://www.inkscape.org/namespaces/inkscape"
   xmlns:sodipodi="http://sodipodi.sourceforge.net/DTD/sodipodi-0.dtd"
   xmlns="http://www.w3.org/2000/svg"
   xmlns:svg="http://www.w3.org/2000/svg">
  <sodipodi:namedview
     id="namedview38"
     pagecolor="#ffffff"
     bordercolor="#000000"
     borderopacity="0.25"
     inkscape:showpageshadow="2"
     inkscape:pageopacity="0.0"
     inkscape:pagecheckerboard="0"
     inkscape:deskcolor="#d1d1d1"
     showgrid="false"
     inkscape:zoom="3.7584062"
     inkscape:cx="79.821069"
     inkscape:cy="72.238067"
     inkscape:window-width="1920"
     inkscape:window-height="1056"
     inkscape:window-x="0"
     inkscape:window-y="1080"
     inkscape:window-maximized="1"
     inkscape:current-layer="Hexagone" />
  <defs
     id="defs4">
    <style
       id="style2">.cls-1{fill:#4f4f4f;}.cls-2{fill:#f7f6f2;}.cls-3{fill:#010101;}.cls-4{fill:#ffd953;}.cls-5{fill:#55c4f1;}.cls-6{fill:#57c4f2;}.cls-7{fill:#f39133;}</style>
  </defs>
  <polygon
     class="cls-1"
     points="141.62 122.91 141.62 40.97 70.81 0 0 40.97 0 122.91 70.81 163.88 141.62 122.91"
     id="polygon6" />
  <path
     class="cls-2"
     d="M134.92,114.73V49.15a7.46,7.46,0,0,0-3.72-6.46L74.53,16.35a7.44,7.44,0,0,0-7.44,0L10.42,42.69A7.46,7.46,0,0,0,6.7,49.15v65.58a7.45,7.45,0,0,0,3.72,6.45l56.67,26.34a7.44,7.44,0,0,0,7.44,0l56.67-26.34A7.45,7.45,0,0,0,134.92,114.73Z"
     transform="translate(0 0)"
     id="path8" />
  <g
     id="g888"
     transform="translate(-0.00649891,-0.19994428)">
    <title
       id="title904">texte garage</title>
    <path
       id="path13"
       class="cls-1"
       d="m 33.056701,108.51228 h 5.052 c 1.812,0 2.772,0.864 2.772,2.58 v 8.316 a 21.996,21.996 0 0 1 -8.244,1.38 7.932,7.932 0 0 1 -6.768,-3.06 13.728,13.728 0 0 1 -2.292,-8.4 c 0,-3.6 0.948,-6.312 2.856,-8.232 a 9.528,9.528 0 0 1 6.972,-2.964002 12.9,12.9 0 0 1 7.44,2.304002 4.332,4.332 0 0 1 -0.672,1.716 3.84,3.84 0 0 1 -1.2,1.2 9.804,9.804 0 0 0 -5.436,-1.92 5.304,5.304 0 0 0 -4.296,1.92 c -1.056,1.332 -1.524,3.336 -1.524,6.12 0,5.256 1.908,7.836 5.82,7.836 a 22.176,22.176 0 0 0 3.528,-0.384 v -2.964 a 12.168,12.168 0 0 1 0.096,-2.1 h -2.58 a 2.46,2.46 0 0 1 -1.428,-0.384 1.584,1.584 0 0 1 -0.48,-1.2 11.016,11.016 0 0 1 0.384,-1.764 z"
       style="stroke-width:1.2" />
    <path
       id="path10"
       class="cls-1"
       d="m 57.572701,118.49628 a 3.48,3.48 0 0 1 -0.564,1.2 2.268,2.268 0 0 1 -0.768,0.864 3.672,3.672 0 0 1 -2.952,-1.92 6.36,6.36 0 0 1 -4.584,2.016 4.728,4.728 0 0 1 -3.72,-1.44 5.316,5.316 0 0 1 -1.2,-3.348 4.668,4.668 0 0 1 1.728,-4.008 6.864,6.864 0 0 1 4.476,-1.344 25.836,25.836 0 0 1 2.772,0.096 v -0.96 c 0,-1.716 -0.768,-2.484 -2.4,-2.484 a 15.408,15.408 0 0 0 -4.86,1.2 4.404,4.404 0 0 1 -1.056,-2.868 16.992,16.992 0 0 1 6.876,-1.44 5.448,5.448 0 0 1 3.912,1.344 5.208,5.208 0 0 1 1.524,4.02 v 6.492 c -0.12,1.332 0.156,2.1 0.816,2.58 z m -8.016,-0.768 a 4.344,4.344 0 0 0 3.156,-1.536 v -2.772 a 19.872,19.872 0 0 0 -2.4,-0.096 2.568,2.568 0 0 0 -2.004,0.672 2.304,2.304 0 0 0 -0.672,1.716 2.604,2.604 0 0 0 0.576,1.632 3.12,3.12 0 0 0 1.332,0.384 z"
       style="stroke-width:1.2" />
    <path
       id="path12"
       class="cls-1"
       d="m 60.152701,106.35228 a 3.24,3.24 0 0 1 0.576,-1.2 2.244,2.244 0 0 1 0.756,-0.864 4.02,4.02 0 0 1 3.348,2.868 4.248,4.248 0 0 1 4.104,-2.868 11.76,11.76 0 0 1 1.812,0.192 7.2,7.2 0 0 1 -0.96,3.732 7.296,7.296 0 0 0 -1.428,-0.192 3.6,3.6 0 0 0 -3.156,2.1 v 10.14 a 14.064,14.064 0 0 1 -1.908,0.192 14.328,14.328 0 0 1 -2.004,-0.192 v -10.668 a 4.02,4.02 0 0 0 -1.2,-3.24 z"
       style="stroke-width:1.2" />
    <path
       id="path14"
       class="cls-1"
       d="m 85.532701,118.49628 a 3.3,3.3 0 0 1 -0.576,1.2 2.244,2.244 0 0 1 -0.72,0.816 3.684,3.684 0 0 1 -2.964,-1.92 6.312,6.312 0 0 1 -4.572,2.016 4.8,4.8 0 0 1 -3.732,-1.44 5.376,5.376 0 0 1 -1.2,-3.348 4.692,4.692 0 0 1 1.668,-4.02 6.648,6.648 0 0 1 4.392,-1.344 25.944,25.944 0 0 1 2.808,0.096 v -0.96 c 0,-1.716 -0.768,-2.484 -2.4,-2.484 a 15.468,15.468 0 0 0 -4.872,1.2 4.452,4.452 0 0 1 -1.128,-2.916 16.968,16.968 0 0 1 6.864,-1.44 5.412,5.412 0 0 1 3.936,1.344 5.172,5.172 0 0 1 1.536,4.02 v 6.492 a 3.204,3.204 0 0 0 0.948,2.688 z m -8.016,-0.768 a 4.368,4.368 0 0 0 3.12,-1.536 v -2.772 a 19.968,19.968 0 0 0 -2.4,-0.096 2.556,2.556 0 0 0 -2.004,0.672 2.304,2.304 0 0 0 -0.672,1.716 2.604,2.604 0 0 0 0.576,1.632 3.072,3.072 0 0 0 1.332,0.384 z"
       style="stroke-width:1.2" />
    <path
       id="path16"
       class="cls-1"
       d="m 89.444701,118.40028 a 10.884,10.884 0 0 1 -1.428,-6 8.844,8.844 0 0 1 1.812,-6 5.628,5.628 0 0 1 4.392,-2.208 6.264,6.264 0 0 1 4.284,1.632 3.6,3.6 0 0 1 2.531999,-1.392 2.472,2.472 0 0 1 0.864,0.864 c 0.192,0.384 0.372,0.672 0.564,1.2 a 3.6,3.6 0 0 0 -0.852,2.772 v 8.988 c 0,3.348 -0.576,5.736 -1.619999,7.2 -1.044,1.464 -2.964,2.112 -5.448,2.112 a 16.8,16.8 0 0 1 -5.724,-1.056 4.32,4.32 0 0 1 0.96,-2.868 9.348,9.348 0 0 0 4.296,0.96 3.324,3.324 0 0 0 2.856,-1.056 4.608,4.608 0 0 0 0.768,-2.964 v -1.2 a 6.156,6.156 0 0 1 -4.008,1.536 5.22,5.22 0 0 1 -4.2,-2.4 z m 8.112,-2.592 v -7.296 a 4.236,4.236 0 0 0 -2.772,-1.344 2.472,2.472 0 0 0 -2.148,1.344 8.088,8.088 0 0 0 -0.756,3.924 7.476,7.476 0 0 0 0.66,3.72 2.316,2.316 0 0 0 1.812,1.2 3.756,3.756 0 0 0 3.156,-1.536 z"
       style="stroke-width:1.2" />
    <path
       id="path18"
       class="cls-1"
       d="m 117.8367,113.70828 h -8.88 a 5.04,5.04 0 0 0 0.864,2.868 2.952,2.952 0 0 0 2.568,1.056 10.932,10.932 0 0 0 4.2,-1.2 4.032,4.032 0 0 1 1.2,2.4 9.972,9.972 0 0 1 -6.108,1.824 5.832,5.832 0 0 1 -5.16,-2.292 10.512,10.512 0 0 1 -1.524,-6 9.804,9.804 0 0 1 1.716,-6 5.724,5.724 0 0 1 4.872,-2.304 6.276,6.276 0 0 1 4.86,1.92 6.9,6.9 0 0 1 1.716,4.872 15.48,15.48 0 0 1 -0.276,2.868 z m -6.108,-6.792 c -1.716,0 -2.676,1.344 -2.772,3.924 h 5.532 v -0.384 a 5.04,5.04 0 0 0 -0.66,-2.58 2.58,2.58 0 0 0 -2.1,-0.96 z"
       style="stroke-width:1.2" />
    <path
       id="path8-6"
       class="cls-1"
       d="m 33.056701,108.51228 h 5.052 c 1.812,0 2.772,0.864 2.772,2.58 v 8.316 a 21.996,21.996 0 0 1 -8.244,1.38 7.932,7.932 0 0 1 -6.768,-3.06 13.728,13.728 0 0 1 -2.292,-8.4 c 0,-3.6 0.948,-6.312 2.856,-8.232 a 9.528,9.528 0 0 1 6.972,-2.964002 12.9,12.9 0 0 1 7.44,2.304002 4.332,4.332 0 0 1 -0.672,1.716 3.84,3.84 0 0 1 -1.2,1.2 9.804,9.804 0 0 0 -5.436,-1.92 5.304,5.304 0 0 0 -4.296,1.92 c -1.056,1.332 -1.524,3.336 -1.524,6.12 0,5.256 1.908,7.836 5.82,7.836 a 22.176,22.176 0 0 0 3.528,-0.384 v -2.964 a 12.168,12.168 0 0 1 0.096,-2.1 h -2.58 a 2.46,2.46 0 0 1 -1.428,-0.384 1.584,1.584 0 0 1 -0.48,-1.2 11.016,11.016 0 0 1 0.384,-1.764 z"
       style="stroke-width:1.2" />
    <path
       id="path10-2"
       class="cls-1"
       d="m 57.572701,118.49628 a 3.48,3.48 0 0 1 -0.564,1.2 2.268,2.268 0 0 1 -0.768,0.864 3.672,3.672 0 0 1 -2.952,-1.92 6.36,6.36 0 0 1 -4.584,2.016 4.728,4.728 0 0 1 -3.72,-1.44 5.316,5.316 0 0 1 -1.2,-3.348 4.668,4.668 0 0 1 1.728,-4.008 6.864,6.864 0 0 1 4.476,-1.344 25.836,25.836 0 0 1 2.772,0.096 v -0.96 c 0,-1.716 -0.768,-2.484 -2.4,-2.484 a 15.408,15.408 0 0 0 -4.86,1.2 4.404,4.404 0 0 1 -1.056,-2.868 16.992,16.992 0 0 1 6.876,-1.44 5.448,5.448 0 0 1 3.912,1.344 5.208,5.208 0 0 1 1.524,4.02 v 6.492 c -0.12,1.332 0.156,2.1 0.816,2.58 z m -8.016,-0.768 a 4.344,4.344 0 0 0 3.156,-1.536 v -2.772 a 19.872,19.872 0 0 0 -2.4,-0.096 2.568,2.568 0 0 0 -2.004,0.672 2.304,2.304 0 0 0 -0.672,1.716 2.604,2.604 0 0 0 0.576,1.632 3.12,3.12 0 0 0 1.332,0.384 z"
       style="stroke-width:1.2" />
    <path
       id="path12-6"
       class="cls-1"
       d="m 60.152701,106.35228 a 3.24,3.24 0 0 1 0.576,-1.2 2.244,2.244 0 0 1 0.756,-0.864 4.02,4.02 0 0 1 3.348,2.868 4.248,4.248 0 0 1 4.104,-2.868 11.76,11.76 0 0 1 1.812,0.192 7.2,7.2 0 0 1 -0.96,3.732 7.296,7.296 0 0 0 -1.428,-0.192 3.6,3.6 0 0 0 -3.156,2.1 v 10.14 a 14.064,14.064 0 0 1 -1.908,0.192 14.328,14.328 0 0 1 -2.004,-0.192 v -10.668 a 4.02,4.02 0 0 0 -1.2,-3.24 z"
       style="stroke-width:1.2" />
    <path
       id="path14-1"
       class="cls-1"
       d="m 85.532701,118.49628 a 3.3,3.3 0 0 1 -0.576,1.2 2.244,2.244 0 0 1 -0.72,0.816 3.684,3.684 0 0 1 -2.964,-1.92 6.312,6.312 0 0 1 -4.572,2.016 4.8,4.8 0 0 1 -3.732,-1.44 5.376,5.376 0 0 1 -1.2,-3.348 4.692,4.692 0 0 1 1.668,-4.02 6.648,6.648 0 0 1 4.392,-1.344 25.944,25.944 0 0 1 2.808,0.096 v -0.96 c 0,-1.716 -0.768,-2.484 -2.4,-2.484 a 15.468,15.468 0 0 0 -4.872,1.2 4.452,4.452 0 0 1 -1.128,-2.916 16.968,16.968 0 0 1 6.864,-1.44 5.412,5.412 0 0 1 3.936,1.344 5.172,5.172 0 0 1 1.536,4.02 v 6.492 a 3.204,3.204 0 0 0 0.948,2.688 z m -8.016,-0.768 a 4.368,4.368 0 0 0 3.12,-1.536 v -2.772 a 19.968,19.968 0 0 0 -2.4,-0.096 2.556,2.556 0 0 0 -2.004,0.672 2.304,2.304 0 0 0 -0.672,1.716 2.604,2.604 0 0 0 0.576,1.632 3.072,3.072 0 0 0 1.332,0.384 z"
       style="stroke-width:1.2" />
    <path
       id="path16-8"
       class="cls-1"
       d="m 89.444701,118.40028 a 10.884,10.884 0 0 1 -1.428,-6 8.844,8.844 0 0 1 1.812,-6 5.628,5.628 0 0 1 4.392,-2.208 6.264,6.264 0 0 1 4.284,1.632 3.6,3.6 0 0 1 2.531999,-1.392 2.472,2.472 0 0 1 0.864,0.864 c 0.192,0.384 0.372,0.672 0.564,1.2 a 3.6,3.6 0 0 0 -0.852,2.772 v 8.988 c 0,3.348 -0.576,5.736 -1.619999,7.2 -1.044,1.464 -2.964,2.112 -5.448,2.112 a 16.8,16.8 0 0 1 -5.724,-1.056 4.32,4.32 0 0 1 0.96,-2.868 9.348,9.348 0 0 0 4.296,0.96 3.324,3.324 0 0 0 2.856,-1.056 4.608,4.608 0 0 0 0.768,-2.964 v -1.2 a 6.156,6.156 0 0 1 -4.008,1.536 5.22,5.22 0 0 1 -4.2,-2.4 z m 8.112,-2.592 v -7.296 a 4.236,4.236 0 0 0 -2.772,-1.344 2.472,2.472 0 0 0 -2.148,1.344 8.088,8.088 0 0 0 -0.756,3.924 7.476,7.476 0 0 0 0.66,3.72 2.316,2.316 0 0 0 1.812,1.2 3.756,3.756 0 0 0 3.156,-1.536 z"
       style="stroke-width:1.2" />
    <path
       id="path18-7"
       class="cls-1"
       d="m 117.8367,113.70828 h -8.88 a 5.04,5.04 0 0 0 0.864,2.868 2.952,2.952 0 0 0 2.568,1.056 10.932,10.932 0 0 0 4.2,-1.2 4.032,4.032 0 0 1 1.2,2.4 9.972,9.972 0 0 1 -6.108,1.824 5.832,5.832 0 0 1 -5.16,-2.292 10.512,10.512 0 0 1 -1.524,-6 9.804,9.804 0 0 1 1.716,-6 5.724,5.724 0 0 1 4.872,-2.304 6.276,6.276 0 0 1 4.86,1.92 6.9,6.9 0 0 1 1.716,4.872 15.48,15.48 0 0 1 -0.276,2.868 z m -6.108,-6.792 c -1.716,0 -2.676,1.344 -2.772,3.924 h 5.532 v -0.384 a 5.04,5.04 0 0 0 -0.66,-2.58 2.58,2.58 0 0 0 -2.1,-0.96 z"
       style="stroke-width:1.2" />
  </g>
  <g
     id="g902"
     transform="translate(-0.00649891,3.8000556)">
    <path
       id="path6"
       class="cls-3"
       d="m 83.528701,52.040278 a 6.396,6.396 0 0 1 -2.676,-0.288 l -33.204,-8.988 a 11.592,11.592 0 0 1 -2.472,-1.2 z"
       style="stroke-width:1.2" />
    <path
       id="path24-3-6"
       class="cls-4"
       d="m 70.652701,23.312278 a 9.792,9.792 0 0 0 -4.104,0.864 l -42.18,18.78 a 1.596,1.596 0 0 0 -0.852,1.956 v 0 c 0,0.096 0,0.096 0.096,0.192 l 6.768,13.38 h 5.916 l -0.852,-4.68 c -0.096,-0.384 -0.672,-3.06 -1.2,-4.968 l 19.752,6.216 a 18,18 0 0 0 1.056,3.432 h 31.908 a 18,18 0 0 0 0.876,-3.384 l 19.655999,-6.12 c -0.576,1.908 -1.2,4.584 -1.2,4.968 l -0.852,4.68 h 5.916 l 6.672,-13.284 0.096,-0.096 0.096,-0.192 v 0 a 0.864,0.864 0 0 0 0.096,-0.48 1.704,1.704 0 0 0 -0.948,-1.524 l -42.239999,-18.744 a 9.432,9.432 0 0 0 -4.476,-0.996 z"
       style="stroke-width:1.2" />
    <path
       id="path24-3"
       class="cls-5"
       d="m 70.652701,32.144278 a 9.792,9.792 0 0 0 -4.104,0.864 l -42.18,18.744 a 1.596,1.596 0 0 0 -0.852,2.004 v 0 c 0,0.096 0,0.096 0.096,0.192 l 3.6,7.272 h 7.824 c -0.288,-1.056 -0.576,-2.304 -0.96,-3.6 l 11.172,3.6 h 50.988 l 11.159999,-3.6 c -0.384,1.2 -0.672,2.484 -0.96,3.6 h 7.8 l 3.6,-7.2 0.096,-0.096 0.096,-0.192 v 0 a 0.864,0.864 0 0 0 0.096,-0.48 1.68,1.68 0 0 0 -0.948,-1.524 l -42.143999,-18.72 a 11.496,11.496 0 0 0 -4.38,-0.864 z"
       style="stroke-width:1.2" />
    <path
       id="path24"
       class="cls-4"
       d="m 118.1607,62.264278 a 0.864,0.864 0 0 1 -0.096,0.48 v 0 l -0.096,0.192 v 0 l -0.096,0.096 -10.2,20.28 c -1.44,2.772 -4.008,2.676 -3.6,-0.096 l 2.088,-11.472 c 0.096,-0.384 0.672,-3.06 1.2,-4.968 l -19.655999,6.12 c -3.06,20.172 -29.58,20.4 -33.876,0 l -19.728,-6.228 c 0.576,1.908 1.2,4.584 1.2,4.968 l 2.136,11.472 c 0.468,2.868 -2.196,2.964 -3.6,0.096 l -10.296,-20.4 c 0,-0.096 -0.096,-0.096 -0.096,-0.192 a 1.464,1.464 0 0 1 0.792,-1.968 v 0 l 42.12,-18.744 a 10.8,10.8 0 0 1 8.484,0 l 42.179999,18.744 a 1.788,1.788 0 0 1 1.14,1.62 z"
       style="stroke-width:1.2" />
    <path
       id="path26"
       class="cls-6"
       d="m 84.236701,65.804278 18.215999,-7.368 a 0.888,0.888 0 0 0 0.48,-1.044 0.792,0.792 0 0 0 -0.48,-0.48 c -2.1,-0.864 -4.799999,-1.908 -7.343999,-2.964 -0.48,-0.192 -4.956,3.06 -5.34,3.348 l -7.824,6.312 c -1.848,1.704 -0.228,3.252 2.292,2.196 z"
       style="stroke-width:1.2" />
    <ellipse
       id="circle28"
       class="cls-6"
       cx="71.024696"
       cy="72.980278"
       rx="9.54"
       ry="9.5640001"
       style="stroke-width:1.2" />
    <path
       id="path6-0"
       class="cls-3"
       d="m 83.528701,52.040278 a 6.396,6.396 0 0 1 -2.676,-0.288 l -33.204,-8.988 a 11.592,11.592 0 0 1 -2.472,-1.2 z"
       style="stroke-width:1.2" />
    <path
       id="path24-3-6-9"
       class="cls-7"
       d="m 70.652701,23.312278 a 9.792,9.792 0 0 0 -4.104,0.864 l -42.18,18.78 a 1.596,1.596 0 0 0 -0.852,1.956 v 0 c 0,0.096 0,0.096 0.096,0.192 l 6.768,13.38 h 5.916 l -0.852,-4.68 c -0.096,-0.384 -0.672,-3.06 -1.2,-4.968 l 19.752,6.216 a 18,18 0 0 0 1.056,3.432 h 31.908 a 18,18 0 0 0 0.876,-3.384 l 19.655999,-6.12 c -0.576,1.908 -1.2,4.584 -1.2,4.968 l -0.852,4.68 h 5.916 l 6.672,-13.284 0.096,-0.096 0.096,-0.192 v 0 a 0.864,0.864 0 0 0 0.096,-0.48 1.704,1.704 0 0 0 -0.948,-1.524 l -42.239999,-18.744 a 9.432,9.432 0 0 0 -4.476,-0.996 z"
       style="stroke-width:1.2" />
    <path
       id="path24-3-2"
       class="cls-1"
       d="m 70.652701,32.144278 a 9.792,9.792 0 0 0 -4.104,0.864 l -42.18,18.744 a 1.596,1.596 0 0 0 -0.852,2.004 v 0 c 0,0.096 0,0.096 0.096,0.192 l 3.6,7.272 h 7.824 c -0.288,-1.056 -0.576,-2.304 -0.96,-3.6 l 11.172,3.6 h 50.988 l 11.159999,-3.6 c -0.384,1.2 -0.672,2.484 -0.96,3.6 h 7.8 l 3.6,-7.2 0.096,-0.096 0.096,-0.192 v 0 a 0.864,0.864 0 0 0 0.096,-0.48 1.68,1.68 0 0 0 -0.948,-1.524 l -42.143999,-18.72 a 11.496,11.496 0 0 0 -4.38,-0.864 z"
       style="stroke-width:1.2" />
    <path
       id="path24-0"
       class="cls-7"
       d="m 118.1607,62.264278 a 0.864,0.864 0 0 1 -0.096,0.48 v 0 l -0.096,0.192 v 0 l -0.096,0.096 -10.2,20.28 c -1.44,2.772 -4.008,2.676 -3.6,-0.096 l 2.088,-11.472 c 0.096,-0.384 0.672,-3.06 1.2,-4.968 l -19.655999,6.12 c -3.06,20.172 -29.58,20.4 -33.876,0 l -19.728,-6.228 c 0.576,1.908 1.2,4.584 1.2,4.968 l 2.136,11.472 c 0.468,2.868 -2.196,2.964 -3.6,0.096 l -10.296,-20.4 c 0,-0.096 -0.096,-0.096 -0.096,-0.192 a 1.464,1.464 0 0 1 0.792,-1.968 v 0 l 42.12,-18.744 a 10.8,10.8 0 0 1 8.484,0 l 42.179999,18.744 a 1.788,1.788 0 0 1 1.14,1.62 z"
       style="stroke-width:1.2" />
    <path
       id="path26-2"
       class="cls-1"
       d="m 84.236701,65.804278 18.215999,-7.368 a 0.888,0.888 0 0 0 0.48,-1.044 0.792,0.792 0 0 0 -0.48,-0.48 c -2.1,-0.864 -4.799999,-1.908 -7.343999,-2.964 -0.48,-0.192 -4.956,3.06 -5.34,3.348 l -7.824,6.312 c -1.848,1.704 -0.228,3.252 2.292,2.196 z"
       style="stroke-width:1.2" />
    <ellipse
       id="circle28-3"
       class="cls-1"
       cx="71.024696"
       cy="72.980278"
       rx="9.54"
       ry="9.5640001"
       style="stroke-width:1.2" />
  </g>
</svg>
