<?xml version="1.0" encoding="UTF-8" standalone="no"?>
<svg
   xmlns:dc="http://purl.org/dc/elements/1.1/"
   xmlns:cc="http://creativecommons.org/ns#"
   xmlns:rdf="http://www.w3.org/1999/02/22-rdf-syntax-ns#"
   xmlns:svg="http://www.w3.org/2000/svg"
   xmlns="http://www.w3.org/2000/svg"
   xmlns:sodipodi="http://sodipodi.sourceforge.net/DTD/sodipodi-0.dtd"
   xmlns:inkscape="http://www.inkscape.org/namespaces/inkscape"
   width="250"
   height="250"
   viewBox="0 0 66.145832 66.145831"
   version="1.1"
   id="svg916"
   inkscape:version="1.0.2 (e86c870879, 2021-01-15)"
   sodipodi:docname="garage-dark-notext.svg"
   inkscape:export-filename="/home/lx/Deuxfleurs/garage/garage-dark-notext.png"
   inkscape:export-xdpi="96"
   inkscape:export-ydpi="96">
  <defs
     id="defs910" />
  <sodipodi:namedview
     id="base"
     pagecolor="#ffffff"
     bordercolor="#666666"
     borderopacity="1.0"
     inkscape:pageopacity="0.0"
     inkscape:pageshadow="2"
     inkscape:zoom="2.3640695"
     inkscape:cx="127.28732"
     inkscape:cy="150.37984"
     inkscape:document-units="mm"
     inkscape:current-layer="layer1"
     inkscape:document-rotation="0"
     showgrid="false"
     fit-margin-top="0"
     fit-margin-left="0"
     fit-margin-right="0"
     fit-margin-bottom="0"
     units="px"
     inkscape:window-width="1920"
     inkscape:window-height="1039"
     inkscape:window-x="0"
     inkscape:window-y="20"
     inkscape:window-maximized="0" />
  <metadata
     id="metadata913">
    <rdf:RDF>
      <cc:Work
         rdf:about="">
        <dc:format>image/svg+xml</dc:format>
        <dc:type
           rdf:resource="http://purl.org/dc/dcmitype/StillImage" />
        <dc:title></dc:title>
      </cc:Work>
    </rdf:RDF>
  </metadata>
  <g
     inkscape:label="Layer 1"
     inkscape:groupmode="layer"
     id="layer1"
     transform="translate(-141.5009,-98.254059)">
    <rect
       style="fill:#4e4e4e;fill-opacity:1;stroke-width:1.01574"
       id="rect858"
       width="66.592186"
       height="66.832306"
       x="141.5009"
       y="98.056282" />
    <g
       id="g1775"
       transform="matrix(1.9019239,0,0,1.9019239,-157.45231,-108.13709)">
      <path
         class="cls-2"
         d="m 187.70646,127.72029 a 0.39366647,0.39366647 0 0 1 -0.0176,0.1366 0.02790919,0.02790919 0 0 1 0,0.0117 l -0.0176,0.0455 v 0 l -0.0176,0.0338 -2.83058,5.59653 c -0.39367,0.77705 -1.11784,0.75355 -0.99592,-0.0323 l 0.56994,-3.18164 c 0.0191,-0.1043 0.18655,-0.83875 0.34666,-1.37049 l -5.46286,1.7054 c -0.85784,5.57155 -8.18914,5.66409 -9.38483,0 l -5.47461,-1.70981 c 0.16011,0.53174 0.32904,1.2706 0.34813,1.3749 l 0.56994,3.18164 c 0.12192,0.78587 -0.60225,0.80937 -0.99592,0.0323 l -2.84822,-5.63031 a 0.20417776,0.20417776 0 0 1 -0.0176,-0.047 0.42304456,0.42304456 0 0 1 0.22181,-0.56552 l 11.69689,-5.17495 a 2.9113691,2.9113691 0 0 1 2.35024,0 l 11.69689,5.17495 a 0.41863785,0.41863785 0 0 1 0.26293,0.41864 z"
         id="path24-31"
         style="stroke-width:0.146891" />
      <path
         class="cls-3"
         d="m 178.30988,128.69564 5.05744,-2.03591 a 0.21446009,0.21446009 0 0 0 0,-0.39807 c -0.58756,-0.2453 -1.3132,-0.52733 -2.02415,-0.82259 -0.13073,-0.0543 -1.36902,0.83434 -1.48213,0.92542 l -2.17985,1.74212 c -0.52734,0.44214 -0.0705,0.86959 0.62869,0.58903 z"
         id="path26-9"
         style="stroke-width:0.146891" />
      <circle
         class="cls-3"
         cx="174.64349"
         cy="130.68452"
         r="2.6366842"
         id="circle28-4"
         style="stroke-width:0.146891" />
      <path
         id="path24-3-6-9-0"
         style="fill:#ff9329;fill-opacity:1;stroke-width:0.146891"
         d="m 174.54269,116.93385 a 2.9113691,2.9113691 0 0 0 -1.14618,0.24753 l -11.69696,5.17488 a 0.42304456,0.42304456 0 0 0 -0.22169,0.56586 0.20417776,0.20417776 0 0 0 0.0176,0.047 l 0.79634,1.57355 11.10475,-4.91288 a 2.9113691,2.9113691 0 0 1 1.14618,-0.24753 2.9113691,2.9113691 0 0 1 1.20406,0.24753 l 11.12387,4.92115 0.7829,-1.54823 0.0176,-0.0336 0.0181,-0.0455 a 0.02790919,0.02790919 0 0 0 0,-0.0119 0.39366647,0.39366647 0 0 0 0.0176,-0.13642 0.41863785,0.41863785 0 0 0 -0.26303,-0.4191 l -11.69697,-5.17488 a 2.9113691,2.9113691 0 0 0 -1.20406,-0.24753 z m -10.12134,9.52449 c 0.0218,0.0723 0.0408,0.14674 0.0615,0.22066 h 0.51831 l -0.008,-0.0419 z m 20.32227,0.005 -0.57103,0.17828 -0.007,0.0377 h 0.5178 c 0.0202,-0.0723 0.0386,-0.14514 0.0599,-0.216 z" />
      <path
         class="cls-2"
         d="m 187.70647,127.72029 a 0.39366647,0.39366647 0 0 1 -0.0176,0.13661 0.02790919,0.02790919 0 0 1 0,0.0117 l -0.0176,0.0455 v 0 l -0.0176,0.0338 -2.83058,5.59652 c -0.39366,0.77705 -1.11783,0.75355 -0.99591,-0.0323 l 0.56993,-3.18165 c 0.0191,-0.10429 0.18655,-0.83874 0.34666,-1.37049 l -5.46285,1.7054 c -0.85784,5.57156 -8.18915,5.6641 -9.38484,0 l -5.4746,-1.70981 c 0.16011,0.53175 0.32903,1.27061 0.34813,1.3749 l 0.56993,3.18165 c 0.12192,0.78586 -0.60225,0.80936 -0.99592,0.0323 l -2.84822,-5.63031 a 0.20417776,0.20417776 0 0 1 -0.0176,-0.047 0.42304456,0.42304456 0 0 1 0.22181,-0.56553 l 11.69688,-5.17495 a 2.9113691,2.9113691 0 0 1 2.35025,0 l 11.69689,5.17495 a 0.41863785,0.41863785 0 0 1 0.26293,0.41864 z"
         id="path24-0-3"
         style="fill:#ff9329;fill-opacity:1;stroke-width:0.146891" />
      <path
         class="cls-3"
         d="m 178.30988,128.69564 5.05744,-2.0359 a 0.21446009,0.21446009 0 0 0 0,-0.39807 c -0.58756,-0.24531 -1.3132,-0.52734 -2.02415,-0.82259 -0.13073,-0.0543 -1.36902,0.83434 -1.48212,0.92541 l -2.17986,1.74212 c -0.52734,0.44214 -0.0705,0.86959 0.62869,0.58903 z"
         id="path26-2-2"
         style="fill:#4e4e4e;fill-opacity:1;stroke-width:0.146891" />
      <circle
         class="cls-3"
         cx="174.64349"
         cy="130.68452"
         r="2.6366842"
         id="circle28-3-0"
         style="fill:#4e4e4e;fill-opacity:1;stroke-width:0.146891" />
    </g>
  </g>
</svg>
