<?xml version="1.0" encoding="UTF-8" standalone="no"?>
<svg
   xmlns:dc="http://purl.org/dc/elements/1.1/"
   xmlns:cc="http://creativecommons.org/ns#"
   xmlns:rdf="http://www.w3.org/1999/02/22-rdf-syntax-ns#"
   xmlns:svg="http://www.w3.org/2000/svg"
   xmlns="http://www.w3.org/2000/svg"
   xmlns:sodipodi="http://sodipodi.sourceforge.net/DTD/sodipodi-0.dtd"
   xmlns:inkscape="http://www.inkscape.org/namespaces/inkscape"
   id="Calque_1"
   data-name="Calque 1"
   width="250"
   height="250"
   viewBox="0 0 249.99999 250"
   version="1.1"
   sodipodi:docname="garage.svg"
   inkscape:version="1.0.2 (e86c870879, 2021-01-15)"
   inkscape:export-filename="/home/lx/Deuxfleurs/garage/doc/logo/garage.png"
   inkscape:export-xdpi="96"
   inkscape:export-ydpi="96">
  <metadata
     id="metadata33">
    <rdf:RDF>
      <cc:Work
         rdf:about="">
        <dc:format>image/svg+xml</dc:format>
        <dc:type
           rdf:resource="http://purl.org/dc/dcmitype/StillImage" />
        <dc:title />
      </cc:Work>
    </rdf:RDF>
  </metadata>
  <sodipodi:namedview
     pagecolor="#ffffff"
     bordercolor="#666666"
     borderopacity="1"
     objecttolerance="10"
     gridtolerance="10"
     guidetolerance="10"
     inkscape:pageopacity="1"
     inkscape:pageshadow="2"
     inkscape:window-width="1920"
     inkscape:window-height="1080"
     id="namedview31"
     showgrid="false"
     inkscape:zoom="2.1842656"
     inkscape:cx="90.853672"
     inkscape:cy="123.63257"
     inkscape:window-x="0"
     inkscape:window-y="0"
     inkscape:window-maximized="0"
     inkscape:current-layer="Calque_1"
     inkscape:document-rotation="0"
     units="px"
     showguides="false"
     inkscape:guide-bbox="true"
     inkscape:snap-global="false"
     width="250mm">
    <sodipodi:guide
       position="102.90662,161.07694"
       orientation="0,-1"
       id="guide1016" />
    <sodipodi:guide
       position="122.45269,170.65683"
       orientation="0,-1"
       id="guide1018" />
    <sodipodi:guide
       position="128.86504,180.08221"
       orientation="0,-1"
       id="guide1020" />
  </sodipodi:namedview>
  <defs
     id="defs4">
    <style
       id="style2">.cls-1{fill:#3b2100;}.cls-2{fill:#ffd952;}.cls-3{fill:#45c8ff;}</style>
  </defs>
  <rect
     style="fill:#ffffff;stroke-width:3.60793"
     id="rect3824"
     width="251.68179"
     height="250.98253"
     x="-0.59092933"
     y="-0.31321606" />
  <g
     id="g1663"
     transform="matrix(1.7099534,0,0,1.7099534,-88.607712,-87.994557)">
    <path
       d="m 138.33068,100.19817 a 8.327649,8.327649 0 0 1 -2.77589,-0.288688 l -34.78736,-9.388036 a 8.4442361,8.4442361 0 0 1 -2.620433,-1.238044 z"
       id="path6"
       style="stroke-width:0.555177" />
    <path
       class="cls-1"
       d="m 85.377935,159.27452 5.163143,-0.0333 h 0.06662 q 2.864711,0 2.864711,2.69816 v 8.69407 a 24.849705,24.849705 0 0 1 -8.649651,1.43235 q -4.730105,0 -7.128468,-3.21447 -2.398363,-3.21447 -2.398363,-8.76068 0,-5.55177 2.981299,-8.62745 a 9.7600046,9.7600046 0 0 1 7.29502,-3.08123 13.368653,13.368653 0 0 1 7.811335,2.43167 3.9250986,3.9250986 0 0 1 -0.682867,1.76547 4.7634152,4.7634152 0 0 1 -1.282458,1.33242 9.798867,9.798867 0 0 0 -5.679457,-1.96533 5.3574542,5.3574542 0 0 0 -4.480275,2.04861 q -1.598909,2.03749 -1.598909,6.41229 0,8.22771 6.062529,8.22771 a 16.910679,16.910679 0 0 0 3.697476,-0.43303 v -3.16451 q 0,-1.49898 0.06662,-2.22071 h -2.442777 a 2.2873276,2.2873276 0 0 1 -1.515632,-0.41638 1.6655298,1.6655298 0 0 1 -0.483004,-1.33242 5.7072154,5.7072154 0 0 1 0.333106,-1.79322 z"
       id="path8"
       style="fill:#4e4e4e;fill-opacity:1;stroke-width:0.555177" />
    <path
       class="cls-1"
       d="m 111.07151,169.73404 a 4.3137222,4.3137222 0 0 1 -0.55518,1.18253 4.0305821,4.0305821 0 0 1 -0.84942,0.94935 3.7640973,3.7640973 0 0 1 -3.05902,-1.95422 6.7453957,6.7453957 0 0 1 -4.76342,2.13188 q -2.564913,0 -3.886233,-1.49898 a 5.1298318,5.1298318 0 0 1 -1.299113,-3.4643 q 0,-2.77588 1.815427,-4.21379 a 7.3338829,7.3338829 0 0 1 4.669039,-1.3935 q 1.53228,0 2.89802,0.13325 v -0.99932 q 0,-2.63154 -2.53161,-2.63154 -1.79877,0 -5.096518,1.19918 a 4.674587,4.674587 0 0 1 -1.110353,-2.96464 18.581761,18.581761 0 0 1 7.217291,-1.49898 5.8682167,5.8682167 0 0 1 4.0639,1.39905 q 1.56559,1.39904 1.56559,4.23044 v 6.79537 q -0.0111,1.83208 0.9216,2.59822 z m -8.36096,-0.83276 a 4.7134493,4.7134493 0 0 0 3.33106,-1.59891 v -2.94244 a 22.368065,22.368065 0 0 0 -2.53161,-0.13324 2.775883,2.775883 0 0 0 -2.06525,0.68842 2.3928111,2.3928111 0 0 0 -0.69953,1.76546 2.3539488,2.3539488 0 0 0 0.55518,1.66553 1.8431863,1.8431863 0 0 0 1.41015,0.55518 z"
       id="path10"
       style="fill:#4e4e4e;fill-opacity:1;stroke-width:0.555177" />
    <path
       class="cls-1"
       d="m 113.76966,157.00939 a 3.986168,3.986168 0 0 1 0.55518,-1.21583 3.3310596,3.3310596 0 0 1 0.84942,-0.94935 4.1638245,4.1638245 0 0 1 3.51427,2.96464 q 1.33242,-2.96464 4.29707,-2.96464 a 10.215249,10.215249 0 0 1 1.93201,0.23317 7.4782288,7.4782288 0 0 1 -0.99932,3.88624 8.4497879,8.4497879 0 0 0 -1.49897,-0.19987 q -2.03195,0 -3.26444,2.16519 v 10.64829 a 11.575432,11.575432 0 0 1 -2.03195,0.16655 12.769062,12.769062 0 0 1 -2.09857,-0.16655 v -11.15905 q -0.0222,-2.40947 -1.2547,-3.40879 z"
       id="path12"
       style="fill:#4e4e4e;fill-opacity:1;stroke-width:0.555177" />
    <path
       class="cls-1"
       d="m 140.38483,169.73404 a 4.3137222,4.3137222 0 0 1 -0.58293,1.18253 4.0305821,4.0305821 0 0 1 -0.84942,0.94935 3.7640973,3.7640973 0 0 1 -3.05348,-1.95422 6.7453957,6.7453957 0 0 1 -4.76341,2.13188 q -2.56492,0 -3.88624,-1.49898 a 5.1298318,5.1298318 0 0 1 -1.29911,-3.4643 q 0,-2.77588 1.81543,-4.21379 a 7.3338829,7.3338829 0 0 1 4.64682,-1.4157 q 1.53229,0 2.89803,0.13324 v -0.99932 q 0,-2.63153 -2.53161,-2.63153 -1.79877,0 -5.09652,1.19918 a 4.674587,4.674587 0 0 1 -1.11035,-2.96465 18.581761,18.581761 0 0 1 7.21729,-1.49897 5.8682167,5.8682167 0 0 1 4.0639,1.39904 q 1.56559,1.39905 1.56559,4.23045 v 6.81757 q 0.0333,1.83208 0.96601,2.59822 z m -8.37206,-0.83276 a 4.7134493,4.7134493 0 0 0 3.33106,-1.59891 v -2.94244 a 22.368065,22.368065 0 0 0 -2.53161,-0.13324 2.775883,2.775883 0 0 0 -2.06526,0.69952 2.3928111,2.3928111 0 0 0 -0.69952,1.76546 2.3539488,2.3539488 0 0 0 0.55518,1.66553 1.8431863,1.8431863 0 0 0 1.41015,0.54408 z"
       id="path14"
       style="fill:#4e4e4e;fill-opacity:1;stroke-width:0.555177" />
    <path
       class="cls-1"
       d="m 144.48203,169.6008 q -1.49897,-2.29843 -1.49897,-6.34567 0,-4.04724 1.8987,-6.34567 a 5.740526,5.740526 0 0 1 4.56355,-2.29843 6.4400486,6.4400486 0 0 1 4.49693,1.66553 3.7696491,3.7696491 0 0 1 2.63154,-1.43235 3.1200925,3.1200925 0 0 1 0.88273,0.93269 3.8862362,3.8862362 0 0 1 0.55518,1.16587 q -0.9327,0.79946 -0.9327,2.86472 v 9.438 q 0,5.29638 -1.73215,7.49488 -1.73215,2.1985 -5.69611,2.22071 a 16.100121,16.100121 0 0 1 -5.9626,-1.11036 4.4802752,4.4802752 0 0 1 1.03263,-3.03126 10.892565,10.892565 0 0 0 4.48028,1.03263 q 2.18184,0 3.0146,-1.11035 a 4.9965894,4.9965894 0 0 0 0.83277,-3.06458 v -1.33242 a 6.4011862,6.4011862 0 0 1 -4.16383,1.56559 4.9188647,4.9188647 0 0 1 -4.40255,-2.30953 z m 8.56083,-2.69816 v -7.72806 a 4.2915151,4.2915151 0 0 0 -2.86471,-1.36573 2.4039147,2.4039147 0 0 0 -2.18185,1.43235 8.6885138,8.6885138 0 0 0 -0.7828,4.09721 q 0,2.66485 0.71618,3.93065 a 2.1318781,2.1318781 0 0 0 1.88205,1.2658 4.2304457,4.2304457 0 0 0 3.23113,-1.63222 z"
       id="path16"
       style="fill:#4e4e4e;fill-opacity:1;stroke-width:0.555177" />
    <path
       class="cls-1"
       d="m 174.20619,164.67083 h -9.32697 a 5.6405943,5.6405943 0 0 0 0.88273,3.04792 q 0.7828,1.0826 2.74813,1.0826 a 10.120869,10.120869 0 0 0 4.36369,-1.16587 4.3803434,4.3803434 0 0 1 1.19918,2.5316 10.759323,10.759323 0 0 1 -6.41229,1.8987 q -3.74744,0 -5.37966,-2.43167 -1.63222,-2.43167 -1.63222,-6.2957 0,-3.88624 1.79877,-6.2957 a 6.0181143,6.0181143 0 0 1 5.14649,-2.43168 q 3.33106,0 5.14648,2.01529 a 7.3449864,7.3449864 0 0 1 1.79878,5.07987 13.04665,13.04665 0 0 1 -0.33311,2.96464 z m -6.42895,-7.06184 q -2.73146,0 -2.93133,4.13051 h 5.79605 v -0.39973 a 4.7245529,4.7245529 0 0 0 -0.69953,-2.69816 2.4316735,2.4316735 0 0 0 -2.14298,-1.03262 z"
       id="path18"
       style="fill:#4e4e4e;fill-opacity:1;stroke-width:0.555177" />
    <path
       id="path24-3-6"
       style="fill:#ffd952;fill-opacity:1;stroke-width:0.555177"
       d="m 124.80273,70.162462 a 11.0036,11.0036 0 0 0 -4.33203,0.935547 L 76.261719,90.656602 a 1.5989086,1.5989086 0 0 0 -0.837891,2.138672 0.77169547,0.77169547 0 0 0 0.06641,0.177735 l 7.09375,14.021481 h 6.15625 l -0.875,-4.88867 c -0.07217,-0.39418 -0.711263,-3.187532 -1.316406,-5.197264 l 20.691398,6.462894 c 0.27198,1.28839 0.63292,2.49204 1.0625,3.62304 h 33.54883 c 0.36964,-1.13128 0.66138,-2.33705 0.85938,-3.62304 l 20.64648,-6.445316 c -0.60514,2.009734 -1.23639,4.785506 -1.30859,5.179686 l -0.875,4.88867 h 6.15429 l 7.02735,-13.894528 0.0664,-0.126953 0.0684,-0.171875 a 0.10548355,0.10548355 0 0 0 0,-0.04492 1.4878733,1.4878733 0 0 0 0.0664,-0.515625 1.5822533,1.5822533 0 0 0 -0.99414,-1.583985 L 129.35352,71.098009 a 11.0036,11.0036 0 0 0 -4.55079,-0.935547 z" />
    <path
       id="path24-3"
       style="fill:#49c8fa;fill-opacity:1;stroke-width:0.555177"
       d="M 124.80273,79.416133 A 11.0036,11.0036 0 0 0 120.4707,80.35168 L 76.261719,99.910272 a 1.5989086,1.5989086 0 0 0 -0.837891,2.136718 0.77169547,0.77169547 0 0 0 0.06641,0.17773 l 3.847657,7.60352 h 8.175781 c -0.257897,-1.08856 -0.591943,-2.42953 -0.964844,-3.66797 l 11.744141,3.66797 h 53.371087 l 11.69336,-3.65039 c -0.37193,1.23522 -0.70076,2.56719 -0.95703,3.65039 h 8.17383 l 3.78125,-7.47656 0.0664,-0.12696 0.0684,-0.17187 a 0.10548355,0.10548355 0 0 0 0,-0.0449 1.4878733,1.4878733 0 0 0 0.0664,-0.51563 1.5822533,1.5822533 0 0 0 -0.99414,-1.582028 L 129.35352,80.35168 a 11.0036,11.0036 0 0 0 -4.55079,-0.935547 z" />
    <path
       class="cls-2"
       d="m 174.55595,110.92974 a 1.4878733,1.4878733 0 0 1 -0.0666,0.51631 0.10548355,0.10548355 0 0 1 0,0.0444 l -0.0666,0.17211 v 0 l -0.0666,0.12769 -10.69826,21.15223 c -1.48787,2.93688 -4.22489,2.84806 -3.76409,-0.12214 l 2.15408,-12.02512 c 0.0722,-0.39418 0.70508,-3.17006 1.31022,-5.1798 l -20.64702,6.4456 c -3.24223,21.05785 -30.95109,21.40761 -35.47023,0 l -20.691432,-6.46226 c 0.605143,2.00974 1.243596,4.80228 1.315769,5.19646 l 2.154085,12.02512 c 0.460796,2.9702 -2.276224,3.05902 -3.764098,0.12214 L 75.49024,111.66257 a 0.77169547,0.77169547 0 0 1 -0.06662,-0.17766 1.5989086,1.5989086 0 0 1 0.838317,-2.13743 L 120.47065,89.788613 a 11.0036,11.0036 0 0 1 8.88282,0 l 44.20871,19.558867 a 1.5822533,1.5822533 0 0 1 0.99377,1.58226 z"
       id="path24"
       style="stroke-width:0.555177" />
    <path
       class="cls-3"
       d="m 139.0413,114.61611 19.11473,-7.69475 a 0.81055784,0.81055784 0 0 0 0,-1.50453 c -2.2207,-0.92714 -4.96328,-1.99308 -7.65033,-3.10899 -0.49411,-0.20541 -5.17425,3.15341 -5.60173,3.49762 l -8.23882,6.58439 c -1.99309,1.67108 -0.26649,3.28665 2.37615,2.22626 z"
       id="path26"
       style="stroke-width:0.555177" />
    <circle
       class="cls-3"
       cx="125.18409"
       cy="122.13319"
       r="9.9654207"
       id="circle28"
       style="stroke-width:0.555177" />
    <path
       d="m 138.33068,100.19817 a 8.327649,8.327649 0 0 1 -2.77589,-0.288688 l -34.78736,-9.388036 a 8.4442361,8.4442361 0 0 1 -2.620433,-1.238044 z"
       id="path6-0"
       style="stroke-width:0.555177" />
    <path
       class="cls-1"
       d="m 85.377935,159.27452 5.163143,-0.0333 h 0.06662 q 2.864711,0 2.864711,2.69816 v 8.69407 a 24.849705,24.849705 0 0 1 -8.649651,1.43235 q -4.730105,0 -7.128468,-3.21447 -2.398363,-3.21447 -2.398363,-8.76068 0,-5.55177 2.981299,-8.62745 a 9.7600046,9.7600046 0 0 1 7.29502,-3.08123 13.368653,13.368653 0 0 1 7.811335,2.43167 3.9250986,3.9250986 0 0 1 -0.682867,1.76547 4.7634152,4.7634152 0 0 1 -1.282458,1.33242 9.798867,9.798867 0 0 0 -5.679457,-1.96533 5.3574542,5.3574542 0 0 0 -4.480275,2.04861 q -1.598909,2.03749 -1.598909,6.41229 0,8.22771 6.062529,8.22771 a 16.910679,16.910679 0 0 0 3.697476,-0.43303 v -3.16451 q 0,-1.49898 0.06662,-2.22071 h -2.442777 a 2.2873276,2.2873276 0 0 1 -1.515632,-0.41638 1.6655298,1.6655298 0 0 1 -0.483004,-1.33242 5.7072154,5.7072154 0 0 1 0.333106,-1.79322 z"
       id="path8-6"
       style="fill:#4e4e4e;fill-opacity:1;stroke-width:0.555177" />
    <path
       class="cls-1"
       d="m 111.07151,169.73404 a 4.3137222,4.3137222 0 0 1 -0.55518,1.18253 4.0305821,4.0305821 0 0 1 -0.84942,0.94935 3.7640973,3.7640973 0 0 1 -3.05902,-1.95422 6.7453957,6.7453957 0 0 1 -4.76342,2.13188 q -2.564913,0 -3.886233,-1.49898 a 5.1298318,5.1298318 0 0 1 -1.299113,-3.4643 q 0,-2.77588 1.815427,-4.21379 a 7.3338829,7.3338829 0 0 1 4.669039,-1.3935 q 1.53228,0 2.89802,0.13325 v -0.99932 q 0,-2.63154 -2.53161,-2.63154 -1.79877,0 -5.096518,1.19918 a 4.674587,4.674587 0 0 1 -1.110353,-2.96464 18.581761,18.581761 0 0 1 7.217291,-1.49898 5.8682167,5.8682167 0 0 1 4.0639,1.39905 q 1.56559,1.39904 1.56559,4.23044 v 6.79537 q -0.0111,1.83208 0.9216,2.59822 z m -8.36096,-0.83276 a 4.7134493,4.7134493 0 0 0 3.33106,-1.59891 v -2.94244 a 22.368065,22.368065 0 0 0 -2.53161,-0.13324 2.775883,2.775883 0 0 0 -2.06525,0.68842 2.3928111,2.3928111 0 0 0 -0.69953,1.76546 2.3539488,2.3539488 0 0 0 0.55518,1.66553 1.8431863,1.8431863 0 0 0 1.41015,0.55518 z"
       id="path10-2"
       style="fill:#4e4e4e;fill-opacity:1;stroke-width:0.555177" />
    <path
       class="cls-1"
       d="m 113.76966,157.00939 a 3.986168,3.986168 0 0 1 0.55518,-1.21583 3.3310596,3.3310596 0 0 1 0.84942,-0.94935 4.1638245,4.1638245 0 0 1 3.51427,2.96464 q 1.33242,-2.96464 4.29707,-2.96464 a 10.215249,10.215249 0 0 1 1.93201,0.23317 7.4782288,7.4782288 0 0 1 -0.99932,3.88624 8.4497879,8.4497879 0 0 0 -1.49897,-0.19987 q -2.03195,0 -3.26444,2.16519 v 10.64829 a 11.575432,11.575432 0 0 1 -2.03195,0.16655 12.769062,12.769062 0 0 1 -2.09857,-0.16655 v -11.15905 q -0.0222,-2.40947 -1.2547,-3.40879 z"
       id="path12-6"
       style="fill:#4e4e4e;fill-opacity:1;stroke-width:0.555177" />
    <path
       class="cls-1"
       d="m 140.38483,169.73404 a 4.3137222,4.3137222 0 0 1 -0.58293,1.18253 4.0305821,4.0305821 0 0 1 -0.84942,0.94935 3.7640973,3.7640973 0 0 1 -3.05348,-1.95422 6.7453957,6.7453957 0 0 1 -4.76341,2.13188 q -2.56492,0 -3.88624,-1.49898 a 5.1298318,5.1298318 0 0 1 -1.29911,-3.4643 q 0,-2.77588 1.81543,-4.21379 a 7.3338829,7.3338829 0 0 1 4.64682,-1.4157 q 1.53229,0 2.89803,0.13324 v -0.99932 q 0,-2.63153 -2.53161,-2.63153 -1.79877,0 -5.09652,1.19918 a 4.674587,4.674587 0 0 1 -1.11035,-2.96465 18.581761,18.581761 0 0 1 7.21729,-1.49897 5.8682167,5.8682167 0 0 1 4.0639,1.39904 q 1.56559,1.39905 1.56559,4.23045 v 6.81757 q 0.0333,1.83208 0.96601,2.59822 z m -8.37206,-0.83276 a 4.7134493,4.7134493 0 0 0 3.33106,-1.59891 v -2.94244 a 22.368065,22.368065 0 0 0 -2.53161,-0.13324 2.775883,2.775883 0 0 0 -2.06526,0.69952 2.3928111,2.3928111 0 0 0 -0.69952,1.76546 2.3539488,2.3539488 0 0 0 0.55518,1.66553 1.8431863,1.8431863 0 0 0 1.41015,0.54408 z"
       id="path14-1"
       style="fill:#4e4e4e;fill-opacity:1;stroke-width:0.555177" />
    <path
       class="cls-1"
       d="m 144.48203,169.6008 q -1.49897,-2.29843 -1.49897,-6.34567 0,-4.04724 1.8987,-6.34567 a 5.740526,5.740526 0 0 1 4.56355,-2.29843 6.4400486,6.4400486 0 0 1 4.49693,1.66553 3.7696491,3.7696491 0 0 1 2.63154,-1.43235 3.1200925,3.1200925 0 0 1 0.88273,0.93269 3.8862362,3.8862362 0 0 1 0.55518,1.16587 q -0.9327,0.79946 -0.9327,2.86472 v 9.438 q 0,5.29638 -1.73215,7.49488 -1.73215,2.1985 -5.69611,2.22071 a 16.100121,16.100121 0 0 1 -5.9626,-1.11036 4.4802752,4.4802752 0 0 1 1.03263,-3.03126 10.892565,10.892565 0 0 0 4.48028,1.03263 q 2.18184,0 3.0146,-1.11035 a 4.9965894,4.9965894 0 0 0 0.83277,-3.06458 v -1.33242 a 6.4011862,6.4011862 0 0 1 -4.16383,1.56559 4.9188647,4.9188647 0 0 1 -4.40255,-2.30953 z m 8.56083,-2.69816 v -7.72806 a 4.2915151,4.2915151 0 0 0 -2.86471,-1.36573 2.4039147,2.4039147 0 0 0 -2.18185,1.43235 8.6885138,8.6885138 0 0 0 -0.7828,4.09721 q 0,2.66485 0.71618,3.93065 a 2.1318781,2.1318781 0 0 0 1.88205,1.2658 4.2304457,4.2304457 0 0 0 3.23113,-1.63222 z"
       id="path16-8"
       style="fill:#4e4e4e;fill-opacity:1;stroke-width:0.555177" />
    <path
       class="cls-1"
       d="m 174.20619,164.67083 h -9.32697 a 5.6405943,5.6405943 0 0 0 0.88273,3.04792 q 0.7828,1.0826 2.74813,1.0826 a 10.120869,10.120869 0 0 0 4.36369,-1.16587 4.3803434,4.3803434 0 0 1 1.19918,2.5316 10.759323,10.759323 0 0 1 -6.41229,1.8987 q -3.74744,0 -5.37966,-2.43167 -1.63222,-2.43167 -1.63222,-6.2957 0,-3.88624 1.79877,-6.2957 a 6.0181143,6.0181143 0 0 1 5.14649,-2.43168 q 3.33106,0 5.14648,2.01529 a 7.3449864,7.3449864 0 0 1 1.79878,5.07987 13.04665,13.04665 0 0 1 -0.33311,2.96464 z m -6.42895,-7.06184 q -2.73146,0 -2.93133,4.13051 h 5.79605 v -0.39973 a 4.7245529,4.7245529 0 0 0 -0.69953,-2.69816 2.4316735,2.4316735 0 0 0 -2.14298,-1.03262 z"
       id="path18-7"
       style="fill:#4e4e4e;fill-opacity:1;stroke-width:0.555177" />
    <path
       id="path24-3-6-9"
       style="fill:#ff9329;fill-opacity:1;stroke-width:0.555177"
       d="m 124.80273,70.162462 a 11.0036,11.0036 0 0 0 -4.33203,0.935547 L 76.261719,90.656602 a 1.5989086,1.5989086 0 0 0 -0.837891,2.138672 0.77169547,0.77169547 0 0 0 0.06641,0.177735 l 7.09375,14.021481 h 6.15625 l -0.875,-4.88867 c -0.07217,-0.39418 -0.711263,-3.187532 -1.316406,-5.197264 l 20.691398,6.462894 c 0.27198,1.28839 0.63292,2.49204 1.0625,3.62304 h 33.54883 c 0.36964,-1.13128 0.66138,-2.33705 0.85938,-3.62304 l 20.64648,-6.445316 c -0.60514,2.009734 -1.23639,4.785506 -1.30859,5.179686 l -0.875,4.88867 h 6.15429 l 7.02735,-13.894528 0.0664,-0.126953 0.0684,-0.171875 a 0.10548355,0.10548355 0 0 0 0,-0.04492 1.4878733,1.4878733 0 0 0 0.0664,-0.515625 1.5822533,1.5822533 0 0 0 -0.99414,-1.583985 L 129.35352,71.098009 a 11.0036,11.0036 0 0 0 -4.55079,-0.935547 z" />
    <path
       id="path24-3-2"
       style="fill:#4e4e4e;fill-opacity:1;stroke-width:0.555177"
       d="M 124.80273,79.416133 A 11.0036,11.0036 0 0 0 120.4707,80.35168 L 76.261719,99.910272 a 1.5989086,1.5989086 0 0 0 -0.837891,2.136718 0.77169547,0.77169547 0 0 0 0.06641,0.17773 l 3.847657,7.60352 h 8.175781 c -0.257897,-1.08856 -0.591943,-2.42953 -0.964844,-3.66797 l 11.744141,3.66797 h 53.371087 l 11.69336,-3.65039 c -0.37193,1.23522 -0.70076,2.56719 -0.95703,3.65039 h 8.17383 l 3.78125,-7.47656 0.0664,-0.12696 0.0684,-0.17187 a 0.10548355,0.10548355 0 0 0 0,-0.0449 1.4878733,1.4878733 0 0 0 0.0664,-0.51563 1.5822533,1.5822533 0 0 0 -0.99414,-1.582028 L 129.35352,80.35168 a 11.0036,11.0036 0 0 0 -4.55079,-0.935547 z" />
    <path
       class="cls-2"
       d="m 174.55595,110.92974 a 1.4878733,1.4878733 0 0 1 -0.0666,0.51631 0.10548355,0.10548355 0 0 1 0,0.0444 l -0.0666,0.17211 v 0 l -0.0666,0.12769 -10.69826,21.15223 c -1.48787,2.93688 -4.22489,2.84806 -3.76409,-0.12214 l 2.15408,-12.02512 c 0.0722,-0.39418 0.70508,-3.17006 1.31022,-5.1798 l -20.64702,6.4456 c -3.24223,21.05785 -30.95109,21.40761 -35.47023,0 l -20.691432,-6.46226 c 0.605143,2.00974 1.243596,4.80228 1.315769,5.19646 l 2.154085,12.02512 c 0.460796,2.9702 -2.276224,3.05902 -3.764098,0.12214 L 75.49024,111.66257 a 0.77169547,0.77169547 0 0 1 -0.06662,-0.17766 1.5989086,1.5989086 0 0 1 0.838317,-2.13743 L 120.47065,89.788613 a 11.0036,11.0036 0 0 1 8.88282,0 l 44.20871,19.558867 a 1.5822533,1.5822533 0 0 1 0.99377,1.58226 z"
       id="path24-0"
       style="fill:#ff9329;fill-opacity:1;stroke-width:0.555177" />
    <path
       class="cls-3"
       d="m 139.0413,114.61611 19.11473,-7.69475 a 0.81055784,0.81055784 0 0 0 0,-1.50453 c -2.2207,-0.92714 -4.96328,-1.99308 -7.65033,-3.10899 -0.49411,-0.20541 -5.17425,3.15341 -5.60173,3.49762 l -8.23882,6.58439 c -1.99309,1.67108 -0.26649,3.28665 2.37615,2.22626 z"
       id="path26-2"
       style="fill:#4e4e4e;fill-opacity:1;stroke-width:0.555177" />
    <circle
       class="cls-3"
       cx="125.18409"
       cy="122.13319"
       r="9.9654207"
       id="circle28-3"
       style="fill:#4e4e4e;fill-opacity:1;stroke-width:0.555177" />
  </g>
</svg>
