<?xml version="1.0" encoding="UTF-8" standalone="no"?>
<svg
   xmlns:dc="http://purl.org/dc/elements/1.1/"
   xmlns:cc="http://creativecommons.org/ns#"
   xmlns:rdf="http://www.w3.org/1999/02/22-rdf-syntax-ns#"
   xmlns:svg="http://www.w3.org/2000/svg"
   xmlns="http://www.w3.org/2000/svg"
   xmlns:sodipodi="http://sodipodi.sourceforge.net/DTD/sodipodi-0.dtd"
   xmlns:inkscape="http://www.inkscape.org/namespaces/inkscape"
   id="Calque_1"
   data-name="Calque 1"
   width="250"
   height="250"
   viewBox="0 0 249.99999 250"
   version="1.1"
   sodipodi:docname="garage-notext.svg"
   inkscape:version="1.0.2 (e86c870879, 2021-01-15)"
   inkscape:export-filename="/home/lx/Deuxfleurs/garage/garage-notext.png"
   inkscape:export-xdpi="96"
   inkscape:export-ydpi="96">
  <metadata
     id="metadata33">
    <rdf:RDF>
      <cc:Work
         rdf:about="">
        <dc:format>image/svg+xml</dc:format>
        <dc:type
           rdf:resource="http://purl.org/dc/dcmitype/StillImage" />
        <dc:title></dc:title>
      </cc:Work>
    </rdf:RDF>
  </metadata>
  <sodipodi:namedview
     pagecolor="#ffffff"
     bordercolor="#666666"
     borderopacity="1"
     objecttolerance="10"
     gridtolerance="10"
     guidetolerance="10"
     inkscape:pageopacity="1"
     inkscape:pageshadow="2"
     inkscape:window-width="1920"
     inkscape:window-height="1039"
     id="namedview31"
     showgrid="false"
     inkscape:zoom="2.1842656"
     inkscape:cx="143.86571"
     inkscape:cy="118.5836"
     inkscape:window-x="0"
     inkscape:window-y="20"
     inkscape:window-maximized="0"
     inkscape:current-layer="Calque_1"
     inkscape:document-rotation="0"
     units="px"
     showguides="false"
     inkscape:guide-bbox="true"
     inkscape:snap-global="false"
     width="250mm">
    <sodipodi:guide
       position="102.90662,161.07694"
       orientation="0,-1"
       id="guide1016" />
    <sodipodi:guide
       position="122.45269,170.65683"
       orientation="0,-1"
       id="guide1018" />
    <sodipodi:guide
       position="128.86504,180.08221"
       orientation="0,-1"
       id="guide1020" />
  </sodipodi:namedview>
  <defs
     id="defs4">
    <style
       id="style2">.cls-1{fill:#3b2100;}.cls-2{fill:#ffd952;}.cls-3{fill:#45c8ff;}</style>
  </defs>
  <rect
     style="fill:#ffffff;stroke-width:3.60793"
     id="rect3824"
     width="251.68179"
     height="250.98253"
     x="-0.59092933"
     y="-0.31321606" />
  <g
     id="g1719"
     transform="matrix(1.9099251,0,0,1.9099251,-113.74064,-74.610597)">
    <path
       d="m 138.41049,100.63656 a 8.327649,8.327649 0 0 1 -2.77589,-0.28869 l -34.78736,-9.388039 a 8.4442361,8.4442361 0 0 1 -2.620438,-1.238044 z"
       id="path6"
       style="stroke-width:0.555177" />
    <path
       id="path24-3-6"
       style="fill:#ffd952;fill-opacity:1;stroke-width:0.555177"
       d="m 124.88254,70.600847 a 11.0036,11.0036 0 0 0 -4.33203,0.935547 L 76.341524,91.094987 a 1.5989086,1.5989086 0 0 0 -0.837891,2.138672 0.77169547,0.77169547 0 0 0 0.06641,0.177735 l 7.09375,14.021486 h 6.15625 l -0.875,-4.88867 c -0.07217,-0.39418 -0.711263,-3.187537 -1.316406,-5.197269 l 20.691403,6.462899 c 0.27198,1.28839 0.63292,2.49204 1.0625,3.62304 h 33.54883 c 0.36964,-1.13128 0.66138,-2.33705 0.85938,-3.62304 l 20.64648,-6.445321 c -0.60514,2.009734 -1.23639,4.785511 -1.30859,5.179691 l -0.875,4.88867 h 6.15429 l 7.02735,-13.894533 0.0664,-0.126953 0.0684,-0.171875 a 0.10548355,0.10548355 0 0 0 0,-0.04492 1.4878733,1.4878733 0 0 0 0.0664,-0.515625 1.5822533,1.5822533 0 0 0 -0.99414,-1.583985 L 129.43333,71.536394 a 11.0036,11.0036 0 0 0 -4.55079,-0.935547 z" />
    <path
       id="path24-3"
       style="fill:#49c8fa;fill-opacity:1;stroke-width:0.555177"
       d="m 124.88254,79.854518 a 11.0036,11.0036 0 0 0 -4.33203,0.935547 L 76.341524,100.34866 a 1.5989086,1.5989086 0 0 0 -0.837891,2.13672 0.77169547,0.77169547 0 0 0 0.06641,0.17773 l 3.847657,7.60352 h 8.175781 c -0.257897,-1.08856 -0.591943,-2.42953 -0.964844,-3.66797 l 11.744141,3.66797 h 53.371092 l 11.69336,-3.65039 c -0.37193,1.23522 -0.70076,2.56719 -0.95703,3.65039 h 8.17383 l 3.78125,-7.47656 0.0664,-0.12696 0.0684,-0.17187 a 0.10548355,0.10548355 0 0 0 0,-0.0449 1.4878733,1.4878733 0 0 0 0.0664,-0.51563 1.5822533,1.5822533 0 0 0 -0.99414,-1.58203 L 129.43333,80.790065 a 11.0036,11.0036 0 0 0 -4.55079,-0.935547 z" />
    <path
       class="cls-2"
       d="m 174.63576,111.36813 a 1.4878733,1.4878733 0 0 1 -0.0666,0.51631 0.10548355,0.10548355 0 0 1 0,0.0444 l -0.0666,0.17211 v 0 l -0.0666,0.12769 -10.69826,21.15223 c -1.48787,2.93688 -4.22489,2.84806 -3.76409,-0.12214 l 2.15408,-12.02512 c 0.0722,-0.39418 0.70508,-3.17006 1.31022,-5.1798 l -20.64702,6.4456 c -3.24223,21.05785 -30.95109,21.40761 -35.47023,0 l -20.691437,-6.46226 c 0.605143,2.00974 1.243596,4.80228 1.315769,5.19646 l 2.154085,12.02512 c 0.460796,2.9702 -2.276224,3.05902 -3.764098,0.12214 L 75.570045,112.10096 a 0.77169547,0.77169547 0 0 1 -0.06662,-0.17766 1.5989086,1.5989086 0 0 1 0.838317,-2.13743 L 120.55046,90.226998 a 11.0036,11.0036 0 0 1 8.88282,0 l 44.20871,19.558872 a 1.5822533,1.5822533 0 0 1 0.99377,1.58226 z"
       id="path24"
       style="stroke-width:0.555177" />
    <path
       class="cls-3"
       d="m 139.12111,115.0545 19.11473,-7.69475 a 0.81055784,0.81055784 0 0 0 0,-1.50453 c -2.2207,-0.92714 -4.96328,-1.99308 -7.65033,-3.10899 -0.49411,-0.20541 -5.17425,3.15341 -5.60173,3.49762 l -8.23882,6.58439 c -1.99309,1.67108 -0.26649,3.28665 2.37615,2.22626 z"
       id="path26"
       style="stroke-width:0.555177" />
    <circle
       class="cls-3"
       cx="125.26389"
       cy="122.57157"
       r="9.9654207"
       id="circle28"
       style="stroke-width:0.555177" />
    <path
       d="m 138.41049,100.63656 a 8.327649,8.327649 0 0 1 -2.77589,-0.28869 l -34.78736,-9.388039 a 8.4442361,8.4442361 0 0 1 -2.620438,-1.238044 z"
       id="path6-0"
       style="stroke-width:0.555177" />
    <path
       id="path24-3-6-9"
       style="fill:#ff9329;fill-opacity:1;stroke-width:0.555177"
       d="m 124.88254,70.600847 a 11.0036,11.0036 0 0 0 -4.33203,0.935547 L 76.341524,91.094987 a 1.5989086,1.5989086 0 0 0 -0.837891,2.138672 0.77169547,0.77169547 0 0 0 0.06641,0.177735 l 7.09375,14.021486 h 6.15625 l -0.875,-4.88867 c -0.07217,-0.39418 -0.711263,-3.187537 -1.316406,-5.197269 l 20.691403,6.462899 c 0.27198,1.28839 0.63292,2.49204 1.0625,3.62304 h 33.54883 c 0.36964,-1.13128 0.66138,-2.33705 0.85938,-3.62304 l 20.64648,-6.445321 c -0.60514,2.009734 -1.23639,4.785511 -1.30859,5.179691 l -0.875,4.88867 h 6.15429 l 7.02735,-13.894533 0.0664,-0.126953 0.0684,-0.171875 a 0.10548355,0.10548355 0 0 0 0,-0.04492 1.4878733,1.4878733 0 0 0 0.0664,-0.515625 1.5822533,1.5822533 0 0 0 -0.99414,-1.583985 L 129.43333,71.536394 a 11.0036,11.0036 0 0 0 -4.55079,-0.935547 z" />
    <path
       id="path24-3-2"
       style="fill:#4e4e4e;fill-opacity:1;stroke-width:0.555177"
       d="m 124.88254,79.854518 a 11.0036,11.0036 0 0 0 -4.33203,0.935547 L 76.341524,100.34866 a 1.5989086,1.5989086 0 0 0 -0.837891,2.13672 0.77169547,0.77169547 0 0 0 0.06641,0.17773 l 3.847657,7.60352 h 8.175781 c -0.257897,-1.08856 -0.591943,-2.42953 -0.964844,-3.66797 l 11.744141,3.66797 h 53.371092 l 11.69336,-3.65039 c -0.37193,1.23522 -0.70076,2.56719 -0.95703,3.65039 h 8.17383 l 3.78125,-7.47656 0.0664,-0.12696 0.0684,-0.17187 a 0.10548355,0.10548355 0 0 0 0,-0.0449 1.4878733,1.4878733 0 0 0 0.0664,-0.51563 1.5822533,1.5822533 0 0 0 -0.99414,-1.58203 L 129.43333,80.790065 a 11.0036,11.0036 0 0 0 -4.55079,-0.935547 z" />
    <path
       class="cls-2"
       d="m 174.63576,111.36813 a 1.4878733,1.4878733 0 0 1 -0.0666,0.51631 0.10548355,0.10548355 0 0 1 0,0.0444 l -0.0666,0.17211 v 0 l -0.0666,0.12769 -10.69826,21.15223 c -1.48787,2.93688 -4.22489,2.84806 -3.76409,-0.12214 l 2.15408,-12.02512 c 0.0722,-0.39418 0.70508,-3.17006 1.31022,-5.1798 l -20.64702,6.4456 c -3.24223,21.05785 -30.95109,21.40761 -35.47023,0 l -20.691437,-6.46226 c 0.605143,2.00974 1.243596,4.80228 1.315769,5.19646 l 2.154085,12.02512 c 0.460796,2.9702 -2.276224,3.05902 -3.764098,0.12214 L 75.570045,112.10096 a 0.77169547,0.77169547 0 0 1 -0.06662,-0.17766 1.5989086,1.5989086 0 0 1 0.838317,-2.13743 L 120.55046,90.226998 a 11.0036,11.0036 0 0 1 8.88282,0 l 44.20871,19.558872 a 1.5822533,1.5822533 0 0 1 0.99377,1.58226 z"
       id="path24-0"
       style="fill:#ff9329;fill-opacity:1;stroke-width:0.555177" />
    <path
       class="cls-3"
       d="m 139.12111,115.0545 19.11473,-7.69475 a 0.81055784,0.81055784 0 0 0 0,-1.50453 c -2.2207,-0.92714 -4.96328,-1.99308 -7.65033,-3.10899 -0.49411,-0.20541 -5.17425,3.15341 -5.60173,3.49762 l -8.23882,6.58439 c -1.99309,1.67108 -0.26649,3.28665 2.37615,2.22626 z"
       id="path26-2"
       style="fill:#4e4e4e;fill-opacity:1;stroke-width:0.555177" />
    <circle
       class="cls-3"
       cx="125.26389"
       cy="122.57157"
       r="9.9654207"
       id="circle28-3"
       style="fill:#4e4e4e;fill-opacity:1;stroke-width:0.555177" />
  </g>
</svg>
