<?xml version="1.0" encoding="UTF-8"?>
<svg width="128" height="128" version="1.1" viewBox="0 0 33.867 33.867" xmlns="http://www.w3.org/2000/svg" xmlns:cc="http://creativecommons.org/ns#" xmlns:dc="http://purl.org/dc/elements/1.1/" xmlns:rdf="http://www.w3.org/1999/02/22-rdf-syntax-ns#">
 <metadata>
  <rdf:RDF>
   <cc:Work rdf:about="">
    <dc:format>image/svg+xml</dc:format>
    <dc:type rdf:resource="http://purl.org/dc/dcmitype/StillImage"/>
    <dc:title/>
   </cc:Work>
  </rdf:RDF>
 </metadata>
 <g stroke-width=".14689">
  <path d="m20.613 10.981a2.2034 2.2034 0 0 1-0.73445-0.07638l-9.2042-2.4839a2.2342 2.2342 0 0 1-0.69332-0.32757z"/>
  <g fill="#4e4e4e">
   <path class="cls-1" d="m6.6028 26.612 1.3661-0.0088h0.01763q0.75796 0 0.75796 0.71389v2.3003a6.5748 6.5748 0 0 1-2.2886 0.37898q-1.2515 0-1.8861-0.8505t-0.63457-2.3179q0-1.4689 0.7888-2.2827a2.5823 2.5823 0 0 1 1.9301-0.81524 3.5371 3.5371 0 0 1 2.0667 0.64338 1.0385 1.0385 0 0 1-0.18068 0.46711 1.2603 1.2603 0 0 1-0.33932 0.35254 2.5926 2.5926 0 0 0-1.5027-0.51999 1.4175 1.4175 0 0 0-1.1854 0.54203q-0.42304 0.53909-0.42304 1.6966 0 2.1769 1.604 2.1769a4.4743 4.4743 0 0 0 0.97829-0.11457v-0.83728q0-0.3966 0.01763-0.58756h-0.64633a0.60519 0.60519 0 0 1-0.40101-0.11018 0.44067 0.44067 0 0 1-0.12779-0.35254 1.51 1.51 0 0 1 0.088134-0.47446z"/>
   <path class="cls-1" d="m13.401 29.379a1.1413 1.1413 0 0 1-0.14689 0.31288 1.0664 1.0664 0 0 1-0.22474 0.25118 0.99592 0.99592 0 0 1-0.80937-0.51705 1.7847 1.7847 0 0 1-1.2603 0.56406q-0.67863 0-1.0282-0.3966a1.3573 1.3573 0 0 1-0.34372-0.9166q0-0.73445 0.48033-1.1149a1.9404 1.9404 0 0 1 1.2354-0.3687q0.40542 0 0.76677 0.03525v-0.2644q0-0.69626-0.66982-0.69626-0.47592 0-1.3485 0.31728a1.2368 1.2368 0 0 1-0.29378-0.78439 4.9164 4.9164 0 0 1 1.9096-0.3966 1.5526 1.5526 0 0 1 1.0752 0.37016q0.41423 0.37016 0.41423 1.1193v1.7979q-0.0029 0.48474 0.24384 0.68745zm-2.2122-0.22034a1.2471 1.2471 0 0 0 0.88134-0.42304v-0.77852a5.9182 5.9182 0 0 0-0.66982-0.03525 0.73445 0.73445 0 0 0-0.54643 0.18214 0.6331 0.6331 0 0 0-0.18508 0.46711 0.62282 0.62282 0 0 0 0.14689 0.44067 0.48768 0.48768 0 0 0 0.3731 0.14689z"/>
   <path class="cls-1" d="m14.115 26.012a1.0547 1.0547 0 0 1 0.14689-0.32169 0.88134 0.88134 0 0 1 0.22474-0.25118 1.1017 1.1017 0 0 1 0.92982 0.78439q0.35254-0.78439 1.1369-0.78439a2.7028 2.7028 0 0 1 0.51118 0.06169 1.9786 1.9786 0 0 1-0.2644 1.0282 2.2357 2.2357 0 0 0-0.3966-0.05288q-0.53762 0-0.86372 0.57287v2.8174a3.0627 3.0627 0 0 1-0.53762 0.04407 3.3785 3.3785 0 0 1-0.55525-0.04407v-2.9525q-0.0059-0.6375-0.33197-0.90191z"/>
   <path class="cls-1" d="m21.157 29.379a1.1413 1.1413 0 0 1-0.15423 0.31288 1.0664 1.0664 0 0 1-0.22474 0.25118 0.99592 0.99592 0 0 1-0.8079-0.51705 1.7847 1.7847 0 0 1-1.2603 0.56406q-0.67864 0-1.0282-0.3966a1.3573 1.3573 0 0 1-0.34372-0.9166q0-0.73445 0.48033-1.1149a1.9404 1.9404 0 0 1 1.2295-0.37457q0.40542 0 0.76677 0.03525v-0.2644q0-0.69626-0.66982-0.69626-0.47592 0-1.3485 0.31728a1.2368 1.2368 0 0 1-0.29378-0.7844 4.9164 4.9164 0 0 1 1.9096-0.3966 1.5526 1.5526 0 0 1 1.0752 0.37016q0.41423 0.37016 0.41423 1.1193v1.8038q0.0088 0.48474 0.25559 0.68745zm-2.2151-0.22034a1.2471 1.2471 0 0 0 0.88134-0.42304v-0.77852a5.9182 5.9182 0 0 0-0.66982-0.03525 0.73445 0.73445 0 0 0-0.54643 0.18508 0.6331 0.6331 0 0 0-0.18508 0.46711 0.62282 0.62282 0 0 0 0.14689 0.44067 0.48768 0.48768 0 0 0 0.3731 0.14395z"/>
   <path class="cls-1" d="m22.241 29.344q-0.3966-0.60813-0.3966-1.679t0.50236-1.679a1.5188 1.5188 0 0 1 1.2074-0.60813 1.7039 1.7039 0 0 1 1.1898 0.44067 0.99739 0.99739 0 0 1 0.69626-0.37898 0.82552 0.82552 0 0 1 0.23356 0.24677 1.0282 1.0282 0 0 1 0.14689 0.30847q-0.24678 0.21152-0.24678 0.75796v2.4971q0 1.4013-0.4583 1.983-0.4583 0.58169-1.5071 0.58756a4.2598 4.2598 0 0 1-1.5776-0.29378 1.1854 1.1854 0 0 1 0.27322-0.80202 2.882 2.882 0 0 0 1.1854 0.27322q0.57728 0 0.79761-0.29378a1.322 1.322 0 0 0 0.22034-0.81084v-0.35254a1.6936 1.6936 0 0 1-1.1017 0.41423 1.3014 1.3014 0 0 1-1.1648-0.61106zm2.2651-0.71389v-2.0447a1.1355 1.1355 0 0 0-0.75796-0.36135 0.63604 0.63604 0 0 0-0.57728 0.37898 2.2988 2.2988 0 0 0-0.20712 1.0841q0 0.70508 0.18949 1.04a0.56406 0.56406 0 0 0 0.49796 0.33491 1.1193 1.1193 0 0 0 0.8549-0.43186z"/>
   <path class="cls-1" d="m30.105 28.039h-2.4678a1.4924 1.4924 0 0 0 0.23356 0.80643q0.20712 0.28644 0.72711 0.28644a2.6778 2.6778 0 0 0 1.1546-0.30847 1.159 1.159 0 0 1 0.31728 0.66982 2.8467 2.8467 0 0 1-1.6966 0.50236q-0.99151 0-1.4234-0.64338-0.43186-0.64338-0.43186-1.6657 0-1.0282 0.47592-1.6657a1.5923 1.5923 0 0 1 1.3617-0.64338q0.88134 0 1.3617 0.53321a1.9434 1.9434 0 0 1 0.47593 1.344 3.4519 3.4519 0 0 1-0.08813 0.7844zm-1.701-1.8684q-0.7227 0-0.77558 1.0929h1.5335v-0.10576a1.25 1.25 0 0 0-0.18508-0.71389 0.64338 0.64338 0 0 0-0.567-0.27321z"/>
  </g>
  <path d="m17.034 3.0341a2.9114 2.9114 0 0 0-1.1462 0.24753l-11.697 5.1749a0.42304 0.42304 0 0 0-0.22169 0.56586 0.20418 0.20418 0 0 0 0.01757 0.04702l1.8769 3.7099h1.6288l-0.23151-1.2935c-0.0191-0.10429-0.18819-0.84337-0.3483-1.3751l5.4746 1.71c0.07196 0.34089 0.16746 0.65935 0.28112 0.9586h8.8765c0.0978-0.29932 0.17499-0.61834 0.22738-0.9586l5.4627-1.7053c-0.16011 0.53174-0.32713 1.2662-0.34623 1.3705l-0.23151 1.2935h1.6283l1.8593-3.6763 0.01757-0.03359 0.0181-0.04547a0.027909 0.027909 0 0 0 0-0.01188 0.39367 0.39367 0 0 0 0.01757-0.13643 0.41864 0.41864 0 0 0-0.26303-0.4191l-11.697-5.1749a2.9114 2.9114 0 0 0-1.2041-0.24753z" fill="#ffd952"/>
  <path d="m17.034 5.4825a2.9114 2.9114 0 0 0-1.1462 0.24753l-11.697 5.1749a0.42304 0.42304 0 0 0-0.22169 0.56534 0.20418 0.20418 0 0 0 0.01757 0.04703l1.018 2.0118h2.1632c-0.068234-0.28802-0.15662-0.64282-0.25528-0.97049l3.1073 0.97048h14.121l3.0939-0.96583c-0.09841 0.32682-0.18541 0.67924-0.25321 0.96583h2.1627l1.0005-1.9782 0.01757-0.03359 0.0181-0.04547a0.027909 0.027909 0 0 0 0-0.01188 0.39367 0.39367 0 0 0 0.01757-0.13643 0.41864 0.41864 0 0 0-0.26303-0.41858l-11.697-5.1749a2.9114 2.9114 0 0 0-1.2041-0.24753z" fill="#49c8fa"/>
  <path class="cls-2" d="m30.198 13.82a0.39367 0.39367 0 0 1-0.01762 0.13661 0.027909 0.027909 0 0 1 0 0.01175l-0.01762 0.04554-0.01762 0.03379-2.8306 5.5965c-0.39367 0.77705-1.1178 0.75355-0.99592-0.03232l0.56993-3.1817c0.0191-0.10429 0.18655-0.83874 0.34666-1.3705l-5.4629 1.7054c-0.85784 5.5716-8.1891 5.6641-9.3848 0l-5.4746-1.7098c0.16011 0.53174 0.32904 1.2706 0.34813 1.3749l0.56994 3.1816c0.12192 0.78586-0.60225 0.80937-0.99592 0.03232l-2.8482-5.6303a0.20418 0.20418 0 0 1-0.01763-0.04701 0.42304 0.42304 0 0 1 0.2218-0.56553l11.697-5.175a2.9114 2.9114 0 0 1 2.3502 0l11.697 5.175a0.41864 0.41864 0 0 1 0.26294 0.41864z" fill="#ffd952"/>
  <path class="cls-3" d="m20.801 14.796 5.0574-2.0359a0.21446 0.21446 0 0 0 0-0.39807c-0.58756-0.24531-1.3132-0.52734-2.0242-0.82259-0.13073-0.05435-1.369 0.83434-1.4821 0.92541l-2.1799 1.7421c-0.52734 0.44214-0.07051 0.86959 0.62869 0.58903z" fill="#45c8ff"/>
  <circle class="cls-3" cx="17.135" cy="16.785" r="2.6367" fill="#45c8ff"/>
  <path d="m20.613 10.981a2.2034 2.2034 0 0 1-0.73445-0.07638l-9.2042-2.4839a2.2342 2.2342 0 0 1-0.69332-0.32757z"/>
  <g fill="#4e4e4e">
   <path class="cls-1" d="m6.6028 26.612 1.3661-0.0088h0.01763q0.75796 0 0.75796 0.71389v2.3003a6.5748 6.5748 0 0 1-2.2886 0.37898q-1.2515 0-1.8861-0.8505t-0.63457-2.3179q0-1.4689 0.7888-2.2827a2.5823 2.5823 0 0 1 1.9301-0.81524 3.5371 3.5371 0 0 1 2.0667 0.64338 1.0385 1.0385 0 0 1-0.18068 0.46711 1.2603 1.2603 0 0 1-0.33932 0.35254 2.5926 2.5926 0 0 0-1.5027-0.51999 1.4175 1.4175 0 0 0-1.1854 0.54203q-0.42304 0.53909-0.42304 1.6966 0 2.1769 1.604 2.1769a4.4743 4.4743 0 0 0 0.97829-0.11457v-0.83728q0-0.3966 0.01763-0.58756h-0.64633a0.60519 0.60519 0 0 1-0.40101-0.11018 0.44067 0.44067 0 0 1-0.12779-0.35254 1.51 1.51 0 0 1 0.088134-0.47446z"/>
   <path class="cls-1" d="m13.401 29.379a1.1413 1.1413 0 0 1-0.14689 0.31288 1.0664 1.0664 0 0 1-0.22474 0.25118 0.99592 0.99592 0 0 1-0.80937-0.51705 1.7847 1.7847 0 0 1-1.2603 0.56406q-0.67863 0-1.0282-0.3966a1.3573 1.3573 0 0 1-0.34372-0.9166q0-0.73445 0.48033-1.1149a1.9404 1.9404 0 0 1 1.2354-0.3687q0.40542 0 0.76677 0.03525v-0.2644q0-0.69626-0.66982-0.69626-0.47592 0-1.3485 0.31728a1.2368 1.2368 0 0 1-0.29378-0.78439 4.9164 4.9164 0 0 1 1.9096-0.3966 1.5526 1.5526 0 0 1 1.0752 0.37016q0.41423 0.37016 0.41423 1.1193v1.7979q-0.0029 0.48474 0.24384 0.68745zm-2.2122-0.22034a1.2471 1.2471 0 0 0 0.88134-0.42304v-0.77852a5.9182 5.9182 0 0 0-0.66982-0.03525 0.73445 0.73445 0 0 0-0.54643 0.18214 0.6331 0.6331 0 0 0-0.18508 0.46711 0.62282 0.62282 0 0 0 0.14689 0.44067 0.48768 0.48768 0 0 0 0.3731 0.14689z"/>
   <path class="cls-1" d="m14.115 26.012a1.0547 1.0547 0 0 1 0.14689-0.32169 0.88134 0.88134 0 0 1 0.22474-0.25118 1.1017 1.1017 0 0 1 0.92982 0.78439q0.35254-0.78439 1.1369-0.78439a2.7028 2.7028 0 0 1 0.51118 0.06169 1.9786 1.9786 0 0 1-0.2644 1.0282 2.2357 2.2357 0 0 0-0.3966-0.05288q-0.53762 0-0.86372 0.57287v2.8174a3.0627 3.0627 0 0 1-0.53762 0.04407 3.3785 3.3785 0 0 1-0.55525-0.04407v-2.9525q-0.0059-0.6375-0.33197-0.90191z"/>
   <path class="cls-1" d="m21.157 29.379a1.1413 1.1413 0 0 1-0.15423 0.31288 1.0664 1.0664 0 0 1-0.22474 0.25118 0.99592 0.99592 0 0 1-0.8079-0.51705 1.7847 1.7847 0 0 1-1.2603 0.56406q-0.67864 0-1.0282-0.3966a1.3573 1.3573 0 0 1-0.34372-0.9166q0-0.73445 0.48033-1.1149a1.9404 1.9404 0 0 1 1.2295-0.37457q0.40542 0 0.76677 0.03525v-0.2644q0-0.69626-0.66982-0.69626-0.47592 0-1.3485 0.31728a1.2368 1.2368 0 0 1-0.29378-0.7844 4.9164 4.9164 0 0 1 1.9096-0.3966 1.5526 1.5526 0 0 1 1.0752 0.37016q0.41423 0.37016 0.41423 1.1193v1.8038q0.0088 0.48474 0.25559 0.68745zm-2.2151-0.22034a1.2471 1.2471 0 0 0 0.88134-0.42304v-0.77852a5.9182 5.9182 0 0 0-0.66982-0.03525 0.73445 0.73445 0 0 0-0.54643 0.18508 0.6331 0.6331 0 0 0-0.18508 0.46711 0.62282 0.62282 0 0 0 0.14689 0.44067 0.48768 0.48768 0 0 0 0.3731 0.14395z"/>
   <path class="cls-1" d="m22.241 29.344q-0.3966-0.60813-0.3966-1.679t0.50236-1.679a1.5188 1.5188 0 0 1 1.2074-0.60813 1.7039 1.7039 0 0 1 1.1898 0.44067 0.99739 0.99739 0 0 1 0.69626-0.37898 0.82552 0.82552 0 0 1 0.23356 0.24677 1.0282 1.0282 0 0 1 0.14689 0.30847q-0.24678 0.21152-0.24678 0.75796v2.4971q0 1.4013-0.4583 1.983-0.4583 0.58169-1.5071 0.58756a4.2598 4.2598 0 0 1-1.5776-0.29378 1.1854 1.1854 0 0 1 0.27322-0.80202 2.882 2.882 0 0 0 1.1854 0.27322q0.57728 0 0.79761-0.29378a1.322 1.322 0 0 0 0.22034-0.81084v-0.35254a1.6936 1.6936 0 0 1-1.1017 0.41423 1.3014 1.3014 0 0 1-1.1648-0.61106zm2.2651-0.71389v-2.0447a1.1355 1.1355 0 0 0-0.75796-0.36135 0.63604 0.63604 0 0 0-0.57728 0.37898 2.2988 2.2988 0 0 0-0.20712 1.0841q0 0.70508 0.18949 1.04a0.56406 0.56406 0 0 0 0.49796 0.33491 1.1193 1.1193 0 0 0 0.8549-0.43186z"/>
   <path class="cls-1" d="m30.105 28.039h-2.4678a1.4924 1.4924 0 0 0 0.23356 0.80643q0.20712 0.28644 0.72711 0.28644a2.6778 2.6778 0 0 0 1.1546-0.30847 1.159 1.159 0 0 1 0.31728 0.66982 2.8467 2.8467 0 0 1-1.6966 0.50236q-0.99151 0-1.4234-0.64338-0.43186-0.64338-0.43186-1.6657 0-1.0282 0.47592-1.6657a1.5923 1.5923 0 0 1 1.3617-0.64338q0.88134 0 1.3617 0.53321a1.9434 1.9434 0 0 1 0.47593 1.344 3.4519 3.4519 0 0 1-0.08813 0.7844zm-1.701-1.8684q-0.7227 0-0.77558 1.0929h1.5335v-0.10576a1.25 1.25 0 0 0-0.18508-0.71389 0.64338 0.64338 0 0 0-0.567-0.27321z"/>
  </g>
  <g>
   <path d="m17.034 3.0341a2.9114 2.9114 0 0 0-1.1462 0.24753l-11.697 5.1749a0.42304 0.42304 0 0 0-0.22169 0.56586 0.20418 0.20418 0 0 0 0.01757 0.04702l1.8769 3.7099h1.6288l-0.23151-1.2935c-0.0191-0.10429-0.18819-0.84337-0.3483-1.3751l5.4746 1.71c0.07196 0.34089 0.16746 0.65935 0.28112 0.9586h8.8765c0.0978-0.29932 0.17499-0.61834 0.22738-0.9586l5.4627-1.7053c-0.16011 0.53174-0.32713 1.2662-0.34623 1.3705l-0.23151 1.2935h1.6283l1.8593-3.6763 0.01757-0.03359 0.0181-0.04547a0.027909 0.027909 0 0 0 0-0.01188 0.39367 0.39367 0 0 0 0.01757-0.13643 0.41864 0.41864 0 0 0-0.26303-0.4191l-11.697-5.1749a2.9114 2.9114 0 0 0-1.2041-0.24753z" fill="#ff9329"/>
   <path d="m17.034 5.4825a2.9114 2.9114 0 0 0-1.1462 0.24753l-11.697 5.1749a0.42304 0.42304 0 0 0-0.22169 0.56534 0.20418 0.20418 0 0 0 0.01757 0.04703l1.018 2.0118h2.1632c-0.068234-0.28802-0.15662-0.64282-0.25528-0.97049l3.1073 0.97048h14.121l3.0939-0.96583c-0.09841 0.32682-0.18541 0.67924-0.25321 0.96583h2.1627l1.0005-1.9782 0.01757-0.03359 0.0181-0.04547a0.027909 0.027909 0 0 0 0-0.01188 0.39367 0.39367 0 0 0 0.01757-0.13643 0.41864 0.41864 0 0 0-0.26303-0.41858l-11.697-5.1749a2.9114 2.9114 0 0 0-1.2041-0.24753z" fill="#4e4e4e"/>
   <path class="cls-2" d="m30.198 13.82a0.39367 0.39367 0 0 1-0.01762 0.13661 0.027909 0.027909 0 0 1 0 0.01175l-0.01762 0.04554-0.01762 0.03379-2.8306 5.5965c-0.39367 0.77705-1.1178 0.75355-0.99592-0.03232l0.56993-3.1817c0.0191-0.10429 0.18655-0.83874 0.34666-1.3705l-5.4629 1.7054c-0.85784 5.5716-8.1891 5.6641-9.3848 0l-5.4746-1.7098c0.16011 0.53174 0.32904 1.2706 0.34813 1.3749l0.56994 3.1816c0.12192 0.78586-0.60225 0.80937-0.99592 0.03232l-2.8482-5.6303a0.20418 0.20418 0 0 1-0.01763-0.04701 0.42304 0.42304 0 0 1 0.2218-0.56553l11.697-5.175a2.9114 2.9114 0 0 1 2.3502 0l11.697 5.175a0.41864 0.41864 0 0 1 0.26294 0.41864z" fill="#ff9329"/>
   <path class="cls-3" d="m20.801 14.796 5.0574-2.0359a0.21446 0.21446 0 0 0 0-0.39807c-0.58756-0.24531-1.3132-0.52734-2.0242-0.82259-0.13073-0.05435-1.369 0.83434-1.4821 0.92541l-2.1799 1.7421c-0.52734 0.44214-0.07051 0.86959 0.62869 0.58903z" fill="#4e4e4e"/>
   <circle class="cls-3" cx="17.135" cy="16.785" r="2.6367" fill="#4e4e4e"/>
  </g>
 </g>
</svg>
